<svg width="91" height="17" viewBox="0 0 91 17" fill="none" xmlns="http://www.w3.org/2000/svg">
<path fill-rule="evenodd" clip-rule="evenodd" d="M83.3446 4.27184C82.338 3.88416 81.1914 3.61652 79.9537 3.52651C76.8887 3.3036 73.4335 4.19087 70.5174 6.88266C69.9087 7.44456 68.9597 7.4066 68.3978 6.79787C67.8359 6.18914 67.8739 5.24015 68.4826 4.67825C72.0665 1.37004 76.3613 0.25732 80.1713 0.534412C83.6752 0.78924 86.9217 2.23802 88.8216 4.4136C90.137 5.58456 91 7.55149 91 9.78046C91 13.3703 88.7614 16.2805 86 16.2805C83.2386 16.2805 81 13.3703 81 9.78046C81 7.4589 81.9362 5.42161 83.3446 4.27184Z" fill="black"/>
<path fill-rule="evenodd" clip-rule="evenodd" d="M15.3446 4.27184C14.338 3.88416 13.1914 3.61652 11.9537 3.52651C8.88871 3.3036 5.43353 4.19087 2.51743 6.88266C1.9087 7.44456 0.959707 7.4066 0.397802 6.79787C-0.164104 6.18914 -0.126143 5.24015 0.482588 4.67825C4.06648 1.37004 8.36131 0.25732 12.1713 0.534412C15.6752 0.78924 18.9217 2.23802 20.8216 4.4136C22.137 5.58456 23 7.55149 23 9.78046C23 13.3703 20.7614 16.2805 18 16.2805C15.2386 16.2805 13 13.3703 13 9.78046C13 7.4589 13.9362 5.42161 15.3446 4.27184Z" fill="black"/>
</svg>
