<svg width="197" height="156" viewBox="0 0 197 156" fill="none" xmlns="http://www.w3.org/2000/svg">
<path d="M6.5 152.671V78.565C12.0579 69.5188 18.8185 61.1842 26.3056 53.6971C40.9276 39.0751 58.0525 25.8551 76.2223 15.9471C90.7175 8.04284 106.672 2.19375 123.25 1.16928C130.69 0.709544 143.792 -0.0137768 144.889 10.1693C145.321 14.1765 140.369 18.4228 136.901 21.5191C141.054 21.8844 145.314 22.9143 148.548 23.6962L148.667 23.7248C165.519 27.7986 181.196 37.5116 190.611 52.3359C194.218 58.0154 197.624 67.9109 188.667 70.4471C186.157 71.1575 183.58 71.2358 181 70.9709V142.381C179.811 141.153 178.773 139.981 177.945 139.03C170.892 130.933 164.865 121.49 161.778 111.142C160.165 105.734 159.761 100.374 159.827 94.8926C154.207 92.5864 147.657 91.7197 142.167 91.0026C115.04 87.46 86.4189 88.0276 59.3889 92.0026C46.4218 93.9095 32.7519 96.453 20.7293 102.138C22.9492 116.369 19.7126 132.025 12.7778 144.53C11.7796 146.33 9.26606 150.381 6.5 152.671Z" fill="#0C497B"/>
</svg>
