<svg width="223" height="157" viewBox="0 0 223 157" fill="none" xmlns="http://www.w3.org/2000/svg">
<path d="M23.3891 63.836C27.8287 60.6823 33.0762 57.4076 38.3567 57.9734C41.9077 48.4031 47.5735 39.8777 54.5556 32.1693C62.3883 23.5217 71.5743 16.7822 82.1944 11.9471C97.1579 5.13446 114.169 0.157083 130.694 0.00264025C158.55 -0.257689 182.918 18.7598 190.861 45.3638C193.016 52.5813 193.133 60.0294 191.651 67.1899C196.317 66.4401 201.004 67.2023 205.361 69.3638C219.555 76.4049 223.224 92.1988 222.278 106.864C221.602 117.336 218.753 128.691 211.611 136.725C207.642 141.19 203.157 142.231 197.976 142.336C194.697 138.956 191.995 134.543 189.778 131.447C181.023 119.223 175.307 106.129 171.539 91.9423C170.745 92.6002 169.792 92.789 168.444 93.086C158.914 95.1859 149.31 97.203 139.667 98.6971C120.858 101.611 101.346 101.916 82.5 99.0582C78.3932 98.4354 74.4271 97.5885 70.5653 96.4273C71.8895 97.9355 72.8073 99.6582 72.7778 101.78C72.708 106.808 65.9372 109.049 61.9444 109.142C57.6795 109.241 53.7387 108.144 50.4 106.016C49.5924 120.063 44.3046 134.27 36.8411 146.442C29.9612 146.461 23.6739 144.782 17.6113 140.725C4.94546 132.248 0.173896 117.654 1.05574 102.892C2.00865 86.9391 10.452 73.0258 23.3891 63.836Z" fill="#F25959"/>
</svg>
