<svg width="233" height="253" viewBox="0 0 233 253" fill="none" xmlns="http://www.w3.org/2000/svg">
<path fill-rule="evenodd" clip-rule="evenodd" d="M31.2779 53.0582C32.7815 52.6372 34.2761 52.2916 35.7607 52.087C37.3345 48.4491 39.457 44.923 41.2778 42.086C46.7214 33.6041 54.1699 26.655 62.5 21.0582C69.9395 16.0598 77.9194 11.864 86.25 8.55821C88.3625 7.7199 90.5233 7.01995 92.685 6.31968C94.6718 5.67608 96.6594 5.03221 98.6111 4.28043C102.866 2.64146 107.417 1.1056 112 0.835988C140.403 -0.834769 172.649 8.64749 191 31.586C201.946 45.269 204.81 61.1724 207.829 77.939C207.923 78.4594 208.017 78.9806 208.111 79.5027C211.215 96.6937 209.503 114.158 207.611 131.392C206.312 143.224 206 155.156 206 167.058C206 178.235 206.661 189.24 207.5 200.392C208.168 209.262 209.889 218.028 212.739 226.452C195.622 233.861 178.249 240.876 160.333 245.753C135.616 252.481 110.136 252.384 84.7304 252.288L82.7222 252.28C63.7806 252.212 44.8417 251.421 26.9722 244.53C19.4533 241.631 11.9515 238.391 5.28162 233.876C11.5755 227.472 14.1359 217.543 16.4368 208.62L16.4369 208.62C16.9488 206.635 17.4478 204.699 17.9723 202.864C19.14 198.777 19.7952 194.504 19.9723 190.253C20.0273 188.933 20.121 187.573 20.2158 186.198C20.4452 182.869 20.6809 179.45 20.389 176.28C18.9576 160.74 16.3394 145.209 11.7779 130.28C10.7591 126.946 9.59983 123.663 8.44556 120.393C4.40545 108.949 0.426764 97.6797 2.7501 85.0304C4.54724 75.246 10.6233 65.0774 18.1112 58.5027C21.2613 55.7367 25.3336 54.6513 29.3134 53.5906C29.9723 53.4149 30.6286 53.24 31.2779 53.0582ZM199 129.895C199 177.944 160.049 216.895 112 216.895C65.3596 216.895 27.2912 180.194 25.0996 134.096C26.396 132.889 27.6551 131.618 28.8889 130.28C38.7664 119.573 48.3276 108.269 56.0556 95.8915C61.2808 87.5229 64.7621 78.4932 66.8705 71.9025C67.2004 72.0411 67.5228 72.1761 67.8333 72.3082C76.0758 75.8156 84.3263 79.0559 92.8333 81.8915C94.7647 82.5353 96.6988 83.185 98.636 83.8358C114.583 89.1927 130.737 94.6194 147.306 97.3915C156.965 99.0077 166.672 99.6661 176.444 98.8082C181.872 98.3318 187.056 97.3275 192.168 96.0435C196.568 106.449 199 117.888 199 129.895Z" fill="#935CE0"/>
</svg>
