<svg width="223" height="44" viewBox="0 0 223 44" fill="none" xmlns="http://www.w3.org/2000/svg">
<path d="M211.082 0.489264C205.712 -0.343212 200.33 1.366 196.242 4.66752C197.992 13.0842 196.347 22.2015 194.365 30.4226C193.764 32.9128 193.122 35.4066 192.391 37.8722C194.762 39.4399 197.711 39.7304 201.17 39.0335C206.302 37.9997 211.524 35.9091 215.392 32.3263C218.61 29.3447 220.684 25.1164 221.99 21.0208C223.701 15.651 223.363 11.1208 220.013 6.4935C217.727 3.33638 215.045 1.10361 211.082 0.489264Z" fill="#EDBFA3"/>
<path d="M194 16.2804C195.565 12.33 200.723 9.90984 204.667 9.2526C210.257 8.32095 216.25 10.5805 217.75 16.2804" stroke="#DDAB8B" stroke-width="3" stroke-linecap="round"/>
<path d="M11.9178 0.489264C17.2879 -0.343212 22.6699 1.366 26.7584 4.66752C25.0084 13.0842 26.6532 22.2015 28.6355 30.4226C29.2359 32.9128 29.8783 35.4066 30.6095 37.8722C28.238 39.4399 25.2888 39.7304 21.8295 39.0335C16.6976 37.9997 11.4756 35.9091 7.60838 32.3263C4.38996 29.3447 2.31563 25.1164 1.01047 21.0208C-0.700745 15.651 -0.363274 11.1208 2.98687 6.4935C5.27259 3.33638 7.95484 1.10361 11.9178 0.489264Z" fill="#EDBFA3"/>
<path d="M29 16.2804C27.4348 12.33 22.2767 9.90984 18.3333 9.2526C12.7434 8.32095 6.74997 10.5805 5.25 16.2804" stroke="#DDAB8B" stroke-width="3" stroke-linecap="round"/>
</svg>
